<svg xmlns="http://www.w3.org/2000/svg" viewBox="0 0 170.196 112.419"><title>ac-dc-logo-v2</title><path d="M62.255,67.231a65.971,65.971,0,0,1,2.077-29.746c3.677-11.59,11.1-20.273,21.118-26.877C92.445,6,99.937,2.431,108.235.95,119.145-1,129.744-.156,139.622,5.378A31.7,31.7,0,0,1,151.1,16.219a25,25,0,0,1,3.356,11.017c1.04,10.21-2.575,18.824-9.261,26.3a46.443,46.443,0,0,1-24.154,14.554c-4.6,1.115-9.2,1.158-13.558-1.1-5.9-3.054-9.536-10.708-8.14-17.126.014-.063.095-.111.212-.24a22.44,22.44,0,0,0,4.35,5.057,16.108,16.108,0,0,0,15.847,3.232c11.093-3.5,18.432-10.981,21.742-22.075,1.989-6.666-.271-12.609-4.664-17.766-4.226-4.961-9.824-7.4-16.123-8.377-14.763-2.281-27.136,2.608-37.968,12.486C73.4,30.7,68.159,41.408,65.178,53.453,64,58.227,63.154,63.06,62.376,67.91,62.336,67.685,62.3,67.458,62.255,67.231Z" style="fill:#02aeee"/><path d="M165.792,28.507a19.289,19.289,0,0,1-1.228,5.545c-3.726,11.479-9.346,21.853-17.961,30.441a52.012,52.012,0,0,1-21.681,13.2,40.832,40.832,0,0,1-13.78,1.3,35.819,35.819,0,0,1-14.826-3.45A31.5,31.5,0,0,1,79.442,53.982C76.413,41.486,80.4,31,90.075,22.662A37.013,37.013,0,0,1,108.2,13.691a34.565,34.565,0,0,1,16.815,1.045c8.892,2.937,13.289,9.321,12.923,18.674a28.381,28.381,0,0,1-.852,5.491c-.523-.231-.568-.758-.776-1.145-2.564-4.79-6.129-8.492-11.636-9.538A22.345,22.345,0,0,0,104.67,33.8,28.424,28.424,0,0,0,95.328,51.17a15.292,15.292,0,0,0,.942,8.008c4.326,10.7,13.263,15.629,24.68,13.291,7.021-1.437,13.121-4.883,18.941-8.9,12.205-8.434,20.11-20.1,25.381-33.75C165.441,29.377,165.619,28.943,165.792,28.507Z" style="fill:#035991"/><path d="M63.255,67.231c.041.227.081.454.121.679.394.78.8,1.555,1.183,2.344a8.505,8.505,0,0,0,7.263,4.954c.12.013.239.021.358.036,2.168.272,2.118.273,2.157,2.445.016.905-.333,1.036-1.115,1.028-3.44-.036-6.88-.015-10.32-.015-4.96,0-9.92-.029-14.879.024-.979.01-1.209-.3-1.184-1.218.054-2.008.011-1.992,2.075-2.3a13.7,13.7,0,0,0,3.583-.922A2.34,2.34,0,0,0,54,71.594a30.09,30.09,0,0,0-1.778-5.826c-1.487-4.258-3.072-8.481-4.568-12.736a1.125,1.125,0,0,0-1.29-.875c-7.32.024-14.64.016-21.96.014-.473,0-.918-.081-1.136.558-1.941,5.7-4.164,11.311-5.612,17.17-.7,2.83.136,4.1,2.935,4.853a23.966,23.966,0,0,0,4.256.659c.622.05.782.251.8.86.062,2.431.086,2.431-2.311,2.431-6.959,0-13.919-.028-20.879.028-1.1.009-1.338-.317-1.293-1.343.081-1.891.014-1.947,1.956-2.171a9.71,9.71,0,0,0,8.3-6c2.542-5.639,4.658-11.45,6.949-17.19q9.162-22.95,18.183-45.957c.363-.924,1.045-.977,1.742-1.179,2.14-.622,2.143-.614,2.9,1.484Q51.767,35.7,62.342,65.018C62.612,65.768,62.949,66.494,63.255,67.231ZM35.89,18.928c-.375.22-.4.564-.512.856q-4.916,13.295-9.841,26.587c-.339.91-.029.973.743.97,6.079-.021,12.157-.035,18.235.011,1.076.008,1.164-.267.831-1.2-1.6-4.508-3.146-9.038-4.713-13.559Q38.268,25.764,35.89,18.928Z" style="fill:#035991"/><path d="M115.366,55.051a12.95,12.95,0,0,1-4.174-.581c-6.477-1.893-9.154-8.357-5.87-14.428,2.932-5.42,7.7-8.246,13.688-9.178a14.123,14.123,0,0,1,6.164.424c6.394,1.853,9.222,7.941,6.248,13.9C128.144,51.756,122.45,54.608,115.366,55.051Z" style="fill:#818285"/><text transform="translate(0 104.271) scale(1 1.21)" style="font-size:14px;fill:#818285;font-family:Helvetica;letter-spacing:0.06898716517857142em">DISASTER</text><text transform="translate(77.239 104.121) scale(1 1.15)" style="font-size:15px;fill:#035991;font-family:Helvetica-Bold, Helvetica;font-weight:700;letter-spacing:-0.033984375em">CONSU<tspan x="51.62" y="0" style="letter-spacing:-0.10774739583333333em">L</tspan><tspan x="59.167" y="0">TING</tspan></text></svg>